<svg viewBox="0 0 20 20" version="1.1" xmlns="http://www.w3.org/2000/svg">
    <path fill="#b40822" fill-rule="nonzero" d="M9.99056974,0 C4.47328094,0 0,4.47328094 0,9.99056974 C0,15.5078585 4.47328094,19.9811395 9.99056974,19.9811395 C15.5078585,19.9811395 19.9811395,15.5078585 19.9811395,9.99056974 C19.9811395,4.47202358 15.5078585,0 9.99056974,0 Z M6.3140275,12.4932024 C4.91410609,12.4932024 3.78015717,11.3592927 3.78015717,9.95933202 C3.78015717,8.55937132 4.9140668,7.42546169 6.3140275,7.42546169 C7.71398821,7.42546169 8.84789784,8.55937132 8.84789784,9.95933202 C8.84789784,11.3592927 7.71394892,12.4932024 6.3140275,12.4932024 Z M13.6933202,12.4932024 C12.2933988,12.4932024 11.1594499,11.3592927 11.1594499,9.95933202 C11.1594499,8.55937132 12.2933595,7.42546169 13.6933202,7.42546169 C15.0932809,7.42546169 16.2271906,8.55937132 16.2271906,9.95933202 C16.2271906,11.3592927 15.0932417,12.4932024 13.6933202,12.4932024 Z" id="Shape"></path>
</svg>